<svg width="21" height="24" viewBox="0 0 21 24" fill="none" xmlns="http://www.w3.org/2000/svg">
<path d="M19.5 23.25H2.25C1.42162 23.25 0.75 22.5784 0.75 21.75C0.75 20.9217 1.42162 20.25 2.25 20.25H19.5V23.25Z" fill="#B8EA8D"/>
<path d="M0.75 1.5V20.0764C1.14825 19.719 1.67288 19.5 2.25 19.5H3V0.75H1.5C1.086 0.75 0.75 1.086 0.75 1.5Z" fill="#DCEF3E"/>
<path d="M19.5001 0.75H3.75006V19.5H19.5001H20.2501V18.75V1.5C20.2501 1.086 19.9141 0.75 19.5001 0.75Z" fill="#DCEF3E"/>
<path d="M21 19.5V1.5C21 0.670875 20.3291 0 19.5 0H1.5C0.670875 0 0 0.670875 0 1.5V21.75C0 22.9924 1.00763 24 2.25 24H20.625C20.8324 24 21 23.8324 21 23.625C21 23.4176 20.8324 23.25 20.625 23.25H20.25V20.25C20.664 20.25 21 19.914 21 19.5ZM0.75 1.5C0.75 1.086 1.086 0.75 1.5 0.75H3V19.5H2.25C1.67287 19.5 1.14825 19.719 0.75 20.0764V1.5ZM19.5 23.25H2.25C1.42162 23.25 0.75 22.5784 0.75 21.75C0.75 20.9216 1.42162 20.25 2.25 20.25H19.5V23.25ZM19.5 19.5H3.75V0.75H19.5C19.914 0.75 20.25 1.086 20.25 1.5V18.75V19.5H19.5Z" fill="#394240"/>
<path d="M14.6249 9.75H7.12494C6.91756 9.75 6.74994 9.91763 6.74994 10.125C6.74994 10.3324 6.91756 10.5 7.12494 10.5H14.6249C14.8323 10.5 14.9999 10.3324 14.9999 10.125C14.9999 9.91763 14.8323 9.75 14.6249 9.75Z" fill="#394240"/>
<path d="M16.8749 7.5H7.12494C6.91756 7.5 6.74994 7.66763 6.74994 7.875C6.74994 8.08237 6.91756 8.25 7.12494 8.25H16.8749C17.0823 8.25 17.2499 8.08237 17.2499 7.875C17.2499 7.66763 17.0823 7.5 16.8749 7.5Z" fill="#394240"/>
<path d="M7.12494 6H11.6249C11.8323 6 11.9999 5.83237 11.9999 5.625C11.9999 5.41763 11.8323 5.25 11.6249 5.25H7.12494C6.91756 5.25 6.74994 5.41763 6.74994 5.625C6.74994 5.83237 6.91756 6 7.12494 6Z" fill="#394240"/>
<path opacity="0.2" d="M0.75 1.5V20.0764C1.14825 19.719 1.67288 19.5 2.25 19.5H3V0.75H1.5C1.086 0.75 0.75 1.086 0.75 1.5Z" fill="#231F20"/>
</svg>
