<svg width="24" height="24" viewBox="0 0 24 24" fill="none" xmlns="http://www.w3.org/2000/svg">
<path d="M12.1935 20.2245C12.1301 20.2414 12.0649 20.2496 12 20.2496C11.9351 20.2496 11.8699 20.2414 11.8065 20.2245L0.75 17.2759V18.0086L12 20.9865L23.25 18.0086V17.2759L12.1935 20.2245Z" fill="#DCEF3E"/>
<path d="M12 21.7496C11.9677 21.7496 11.9355 21.7455 11.904 21.7372L0.75 18.7845V19.4992L10.1374 22.0027L10.8825 22.2015C10.9121 22.6301 11.1769 22.9931 11.553 23.1562L11.8065 23.2241C11.8699 23.241 11.9351 23.2492 12 23.2492C12.0649 23.2492 12.1301 23.241 12.1935 23.2241L12.447 23.1562C12.8231 22.9931 13.0879 22.6301 13.1175 22.2015L13.8626 22.0027L23.25 19.4992V18.7845L12.096 21.7372C12.0645 21.7455 12.0323 21.7496 12 21.7496Z" fill="#DCEF3E"/>
<path d="M0.750393 0.750009H0.749268L0.750018 16.4996L11.625 19.3995V3.64951L0.750393 0.749634V0.750009Z" fill="#B8EA8D"/>
<path d="M12.3751 3.64951V19.3995L23.2501 16.4996V0.749634L12.3751 3.64951Z" fill="#B8EA8D"/>
<path opacity="0.15" d="M12.375 3.64951V19.3995L23.25 16.4996V0.749634L12.375 3.64951Z" fill="#231F20"/>
<path d="M3.37197 11.1851L8.7971 12.7354C8.8316 12.7447 8.8661 12.7496 8.90022 12.7496C9.06335 12.7496 9.21335 12.6424 9.2606 12.4774C9.31722 12.2786 9.2021 12.0709 9.0026 12.0139L3.57785 10.4636C3.38022 10.4089 3.17135 10.5217 3.11435 10.7216C3.05735 10.9204 3.17285 11.1281 3.37197 11.1851Z" fill="#394240"/>
<path d="M3.37197 13.8105L8.7971 15.3604C8.8316 15.3697 8.8661 15.3746 8.90022 15.3746C9.06335 15.3746 9.21335 15.2674 9.2606 15.1024C9.31722 14.9032 9.2021 14.6959 9.0026 14.6389L3.57785 13.089C3.38022 13.0342 3.17135 13.1471 3.11435 13.347C3.05735 13.5461 3.17285 13.7535 3.37197 13.8105Z" fill="#394240"/>
<path d="M3.37197 8.56011L8.7971 10.1104C8.8316 10.1197 8.8661 10.1246 8.90022 10.1246C9.06335 10.1246 9.21335 10.0174 9.2606 9.85236C9.31722 9.65361 9.2021 9.44586 9.0026 9.38886L3.57785 7.83861C3.38022 7.78386 3.17135 7.89674 3.11435 8.09661C3.05735 8.29536 3.17285 8.50311 3.37197 8.56011Z" fill="#394240"/>
<path d="M3.37197 5.93511L8.7971 7.48536C8.8316 7.49474 8.8661 7.49961 8.90022 7.49961C9.06335 7.49961 9.21335 7.39236 9.2606 7.22736C9.31722 7.02861 9.2021 6.82086 9.0026 6.76386L3.57785 5.21361C3.38022 5.15886 3.17135 5.27174 3.11435 5.47161C3.05735 5.67036 3.17285 5.87811 3.37197 5.93511Z" fill="#394240"/>
<path d="M14.9861 12.7353C15.0206 12.7353 15.0551 12.7305 15.0892 12.7211L20.5144 11.1708C20.7135 11.1138 20.829 10.9061 20.7724 10.7073C20.7154 10.5078 20.5069 10.3953 20.3089 10.4493L14.8834 11.9996C14.6842 12.0566 14.5687 12.2643 14.6254 12.4631C14.673 12.6281 14.823 12.7353 14.9861 12.7353Z" fill="#394240"/>
<path d="M20.4221 13.089L14.997 14.6388C14.7979 14.6958 14.6824 14.9032 14.739 15.1023C14.7866 15.2673 14.9366 15.3746 15.0998 15.3746C15.1343 15.3746 15.1688 15.3697 15.2029 15.3603L20.628 13.8105C20.8271 13.7535 20.9426 13.5461 20.886 13.347C20.8286 13.1475 20.6201 13.035 20.4221 13.089Z" fill="#394240"/>
<path d="M15.0997 10.1246C15.1342 10.1246 15.1687 10.1197 15.2029 10.1103L20.628 8.56009C20.8271 8.50309 20.9426 8.29534 20.886 8.09659C20.829 7.89709 20.6205 7.78384 20.4225 7.83859L14.9974 9.38884C14.7982 9.44584 14.6827 9.65359 14.7394 9.85234C14.7866 10.0173 14.9366 10.1246 15.0997 10.1246Z" fill="#394240"/>
<path d="M15.0997 7.49963C15.1342 7.49963 15.1687 7.49475 15.2029 7.48538L20.628 5.93513C20.8271 5.87813 20.9426 5.67038 20.886 5.47163C20.829 5.27213 20.6205 5.15963 20.4225 5.21363L14.9974 6.76388C14.7982 6.82088 14.6827 7.02863 14.7394 7.22738C14.7866 7.39238 14.9366 7.49963 15.0997 7.49963Z" fill="#394240"/>
<path d="M23.7071 0.154875C23.5744 0.05325 23.4131 0 23.2493 0C23.1848 0 23.1199 0.00825 23.0565 0.02475L12 2.97337L0.9435 0.02475C0.87975 0.007875 0.814875 0 0.750375 0C0.5865 0 0.425625 0.05325 0.292875 0.154875C0.108375 0.297 0 0.51675 0 0.749625V19.4992C0 19.839 0.228375 20.1364 0.5565 20.2241L10.2589 22.8112C10.5334 23.5065 11.2076 23.9996 12 23.9996C12.7924 23.9996 13.4666 23.5065 13.7411 22.8112L23.4435 20.2241C23.7716 20.1364 24 19.839 24 19.4992V0.749625C24 0.51675 23.8916 0.297 23.7071 0.154875ZM0.750375 0.75L11.625 3.6495V19.3995L0.75 16.4996L0.74925 0.75C0.74925 0.75 0.749625 0.75 0.750375 0.75ZM23.25 19.4992L13.8626 22.0027L13.1175 22.2015C13.0879 22.6301 12.8231 22.9931 12.447 23.1562L12.1935 23.2241C12.1301 23.241 12.0649 23.2492 12 23.2492C11.9351 23.2492 11.8699 23.241 11.8065 23.2241L11.553 23.1562C11.1769 22.9931 10.9121 22.6301 10.8825 22.2015L10.1374 22.0027L0.75 19.4992V18.7845L11.904 21.7372C11.9355 21.7455 11.9677 21.7496 12 21.7496C12.0323 21.7496 12.0645 21.7455 12.096 21.7372L23.25 18.7845V19.4992ZM23.25 18.0086L12 20.9865L0.75 18.0086V17.2759L11.8065 20.2241C11.8699 20.2414 11.9351 20.2496 12 20.2496C12.0649 20.2496 12.1301 20.2414 12.1935 20.2245L23.25 17.2759V18.0086ZM23.25 16.4996L12.375 19.3995V3.6495L23.25 0.749625V16.4996Z" fill="#394240"/>
</svg>
