<svg width="24" height="24" viewBox="0 0 24 24" fill="none" xmlns="http://www.w3.org/2000/svg">
<g clip-path="url(#clip0_19_344)">
<g clip-path="url(#clip1_19_344)">
<path d="M24 10.9269V13.0731C24 13.6912 23.54 14.2263 22.9303 14.3176C22.4786 14.3849 22.0152 14.4499 21.5529 14.5104C21.4969 14.5177 21.4515 14.5558 21.4374 14.6073C21.2239 15.3817 20.9141 16.1287 20.5168 16.8286C20.4899 16.8757 20.4949 16.9345 20.5297 16.9793C20.8138 17.3492 21.0962 17.7229 21.3674 18.09C21.7344 18.5858 21.6812 19.2897 21.2436 19.7267L19.7267 21.2436C19.2891 21.6812 18.5858 21.7345 18.0899 21.3675C17.7234 21.0962 17.3497 20.8144 16.9793 20.5297C16.9345 20.4955 16.8756 20.4905 16.8285 20.5168C16.1292 20.9141 15.3817 21.224 14.6073 21.4375C14.5557 21.4515 14.5176 21.4969 14.5103 21.5529C14.4498 22.0158 14.3848 22.4792 14.3176 22.9303C14.2263 23.54 13.6912 24 13.0725 24H10.9275C10.3089 24 9.77372 23.54 9.68241 22.9303C9.61519 22.4797 9.55017 22.0163 9.48966 21.5529C9.48239 21.4969 9.44428 21.4515 9.39272 21.4375C8.6183 21.224 7.87078 20.9141 7.17145 20.5168C7.12495 20.4905 7.06556 20.495 7.0207 20.5297C6.6503 20.8144 6.27656 21.0962 5.91009 21.3675C5.4142 21.7345 4.71094 21.6812 4.27331 21.2436L2.75644 19.7267C2.31881 19.2897 2.26556 18.5858 2.63259 18.09C2.90381 17.7229 3.18567 17.3497 3.47034 16.9793C3.50508 16.9345 3.51014 16.8757 3.48323 16.8286C3.08592 16.1287 2.77608 15.3812 2.56256 14.6073C2.54855 14.5558 2.50317 14.5177 2.44711 14.5104C1.98483 14.4499 1.52142 14.3854 1.06973 14.3176C0.460031 14.2263 0 13.6912 0 13.0731V10.9269C0 10.3088 0.460031 9.77367 1.06973 9.68236C1.52137 9.61458 1.98478 9.55013 2.44711 9.48961C2.50313 9.48234 2.54855 9.44423 2.56256 9.39267C2.77608 8.61881 3.08592 7.8713 3.48323 7.17141C3.51014 7.12434 3.50508 7.06552 3.47034 7.02066C3.18623 6.65138 2.90437 6.27764 2.63259 5.91005C2.26556 5.41416 2.31881 4.71089 2.75644 4.27327L4.27331 2.75639C4.71038 2.31877 5.4142 2.26552 5.91009 2.63255C6.27656 2.90377 6.65034 3.18562 7.0207 3.4703C7.06552 3.50447 7.12491 3.51009 7.17145 3.48319C7.87078 3.08587 8.6183 2.77603 9.39272 2.56252C9.44428 2.5485 9.48239 2.50312 9.48966 2.44706C9.55017 1.98366 9.61519 1.52025 9.68241 1.06969C9.77372 0.460031 10.3088 0 10.9275 0H13.0731C13.6912 0 14.2263 0.460031 14.3176 1.06973C14.3849 1.52025 14.4499 1.98366 14.5104 2.44711C14.5177 2.50313 14.5558 2.54855 14.6073 2.56256C15.3817 2.77608 16.1293 3.08592 16.8286 3.48323C16.8757 3.51014 16.935 3.50508 16.9793 3.47034C17.3498 3.18567 17.7235 2.90381 18.09 2.63259C18.5858 2.26556 19.2897 2.31881 19.7267 2.75644L21.2436 4.27331C21.6812 4.71038 21.7345 5.4142 21.3675 5.91009C21.0962 6.27713 20.8138 6.65091 20.5297 7.0207C20.495 7.06552 20.4899 7.12491 20.5168 7.17145C20.9141 7.87134 21.224 8.6183 21.4375 9.39272C21.4515 9.44428 21.4969 9.48239 21.5529 9.48966C22.0152 9.55017 22.4786 9.61519 22.9303 9.68241C23.54 9.77372 24 10.3088 24 10.9269ZM22.8793 13.0731V10.9269C22.8793 10.8591 22.83 10.8008 22.7644 10.7907C22.3195 10.724 21.8634 10.6602 21.4078 10.6008C20.904 10.5352 20.4911 10.1783 20.3572 9.69075C20.1683 9.00544 19.8943 8.34422 19.5424 7.72505C19.2925 7.28517 19.3312 6.74048 19.6416 6.33703C19.9218 5.97281 20.1991 5.60522 20.4665 5.24377C20.5063 5.19052 20.4995 5.11378 20.4513 5.06559L18.9345 3.54872C18.8863 3.50053 18.8095 3.49378 18.7563 3.53358C18.396 3.8003 18.0278 4.0777 17.663 4.35844C17.2601 4.66889 16.7149 4.70752 16.275 4.45763C15.6558 4.1063 14.9946 3.83227 14.3093 3.64289C13.8224 3.50897 13.4648 3.096 13.3993 2.59167C13.3393 2.13553 13.2754 1.67944 13.2093 1.23563C13.1998 1.17005 13.141 1.12073 13.0732 1.12073H10.9275C10.8592 1.12073 10.8008 1.17005 10.7908 1.23563C10.7246 1.67944 10.6608 2.13558 10.6008 2.59167C10.5353 3.096 10.1778 3.50897 9.6908 3.64289C9.00548 3.83231 8.34427 4.1063 7.72509 4.45763C7.28522 4.70756 6.74053 4.66889 6.33708 4.35844C5.9723 4.0777 5.60414 3.80034 5.24381 3.53358C5.19 3.49378 5.11383 3.50053 5.06564 3.54872L3.54877 5.06559C3.50058 5.11378 3.49383 5.19 3.53363 5.24377C3.80147 5.60573 4.07883 5.97333 4.35848 6.33703C4.66894 6.73992 4.70756 7.28517 4.45767 7.72505C4.10578 8.34422 3.83175 9.00544 3.64294 9.69075C3.50902 10.1777 3.09605 10.5352 2.59172 10.6008C2.1367 10.6602 1.68056 10.7241 1.23567 10.7907C1.17009 10.8008 1.12078 10.8591 1.12078 10.9269V13.0731C1.12078 13.1408 1.17009 13.1992 1.23567 13.2092C1.68061 13.2759 2.1367 13.3398 2.59228 13.3992C3.09605 13.4647 3.50902 13.8222 3.64294 14.3092C3.8318 14.9945 4.10578 15.6557 4.45767 16.2749C4.70761 16.7148 4.66894 17.26 4.35848 17.6629C4.07831 18.0271 3.80095 18.3953 3.53363 18.7562C3.49383 18.81 3.50058 18.8862 3.54877 18.9344L5.06564 20.4512C5.11383 20.4994 5.19005 20.5056 5.24381 20.4664C5.60414 20.1997 5.9723 19.9223 6.33708 19.6415C6.56348 19.4672 6.83466 19.3787 7.10644 19.3787C7.31883 19.3787 7.5323 19.4325 7.72505 19.5423C8.34422 19.8937 9.00544 20.1677 9.69075 20.3571C10.1777 20.491 10.5352 20.904 10.6008 21.4083C10.6607 21.8644 10.7246 22.3205 10.7907 22.7643C10.8008 22.8299 10.8591 22.8792 10.9275 22.8792H13.0725C13.1408 22.8792 13.1997 22.8299 13.2092 22.7643C13.2759 22.32 13.3392 21.8639 13.3992 21.4083C13.4647 20.904 13.8222 20.491 14.3092 20.3571C14.9945 20.1676 15.6557 19.8937 16.2749 19.5423C16.7148 19.2924 17.26 19.3311 17.6629 19.6415C18.0277 19.9223 18.3959 20.1996 18.7562 20.4664C18.8094 20.5062 18.8862 20.4994 18.9344 20.4512L20.4512 18.9344C20.4994 18.8862 20.5062 18.8094 20.4664 18.7562C20.1991 18.3947 19.9217 18.0272 19.6415 17.6629C19.3311 17.2595 19.2924 16.7148 19.5423 16.2749C19.8942 15.6557 20.1682 14.9945 20.3571 14.3092C20.491 13.8217 20.904 13.4647 21.4083 13.3992C21.8633 13.3398 22.3194 13.2759 22.7643 13.2092C22.83 13.1992 22.8793 13.1409 22.8793 13.0731Z" fill="#394240"/>
<path d="M22.8793 10.9269V13.0731C22.8793 13.1409 22.83 13.1992 22.7644 13.2093C22.3195 13.276 21.8634 13.3398 21.4084 13.3992C20.9041 13.4648 20.4911 13.8217 20.3572 14.3093C20.1683 14.9946 19.8943 15.6558 19.5424 16.275C19.2925 16.7148 19.3312 17.2595 19.6416 17.663C19.9218 18.0272 20.1992 18.3948 20.4665 18.7562C20.5063 18.8095 20.4995 18.8862 20.4514 18.9344L18.9345 20.4513C18.8863 20.4995 18.8095 20.5062 18.7563 20.4664C18.396 20.1997 18.0279 19.9223 17.663 19.6416C17.2601 19.3311 16.7149 19.2925 16.275 19.5424C15.6559 19.8937 14.9946 20.1677 14.3093 20.3571C13.8224 20.491 13.4649 20.904 13.3993 21.4083C13.3393 21.8639 13.276 22.3201 13.2094 22.7644C13.1998 22.83 13.141 22.8793 13.0726 22.8793H10.9275C10.8592 22.8793 10.8009 22.83 10.7908 22.7644C10.7246 22.3206 10.6608 21.8644 10.6009 21.4083C10.5353 20.904 10.1778 20.491 9.69082 20.3571C9.00551 20.1677 8.34429 19.8937 7.72512 19.5424C7.53237 19.4326 7.31885 19.3787 7.10651 19.3787C6.83473 19.3787 6.56351 19.4673 6.33715 19.6416C5.97237 19.9223 5.60421 20.1997 5.24388 20.4664C5.19007 20.5057 5.1139 20.4995 5.06571 20.4513L3.54883 18.9344C3.50065 18.8862 3.4939 18.81 3.53369 18.7562C3.80097 18.3954 4.07838 18.0272 4.35855 17.663C4.66901 17.2601 4.70763 16.7148 4.45774 16.275C4.10585 15.6558 3.83182 14.9946 3.64301 14.3093C3.50908 13.8223 3.09612 13.4648 2.59235 13.3992C2.13677 13.3398 1.68063 13.2759 1.23574 13.2093C1.17016 13.1992 1.12085 13.1409 1.12085 13.0731V10.9269C1.12085 10.8592 1.17016 10.8009 1.23574 10.7908C1.68068 10.7241 2.13677 10.6602 2.59179 10.6008C3.09612 10.5353 3.50908 10.1778 3.64301 9.6908C3.83187 9.00549 4.10585 8.34427 4.45774 7.7251C4.70768 7.28523 4.66901 6.73998 4.35855 6.33709C4.07894 5.97343 3.80154 5.60584 3.53369 5.24382C3.4939 5.19001 3.50065 5.11384 3.54883 5.06565L5.06571 3.54877C5.1139 3.50059 5.19012 3.49384 5.24388 3.53363C5.60421 3.80035 5.97237 4.07776 6.33715 4.35849C6.7406 4.66895 7.28529 4.70757 7.72516 4.45768C8.34433 4.10635 9.00555 3.83232 9.69087 3.64295C10.1778 3.50902 10.5353 3.09605 10.6009 2.59173C10.6609 2.13559 10.7247 1.67949 10.7908 1.23568C10.8009 1.1701 10.8592 1.12079 10.9276 1.12079H13.0732C13.141 1.12079 13.1998 1.1701 13.2094 1.23568C13.2755 1.67949 13.3393 2.13563 13.3993 2.59173C13.4649 3.09605 13.8223 3.50902 14.3093 3.64295C14.9946 3.83237 15.6559 4.10635 16.275 4.45768C16.7149 4.70762 17.2601 4.66895 17.663 4.35849C18.0278 4.07776 18.396 3.8004 18.7563 3.53363C18.8096 3.49384 18.8863 3.50059 18.9345 3.54877L20.4514 5.06565C20.4995 5.11384 20.5063 5.19062 20.4665 5.24382C20.1992 5.60523 19.9218 5.97282 19.6416 6.33709C19.3312 6.74054 19.2925 7.28523 19.5424 7.7251C19.8943 8.34427 20.1684 9.00549 20.3572 9.6908C20.4911 10.1783 20.9041 10.5353 21.4078 10.6008C21.8634 10.6602 22.3196 10.7241 22.7644 10.7908C22.83 10.8009 22.8793 10.8591 22.8793 10.9269ZM17.2097 12C17.2097 9.12765 14.8724 6.79037 12 6.79037C9.12762 6.79037 6.79038 9.12765 6.79038 12C6.79038 14.8724 9.12766 17.2096 12 17.2096C14.8724 17.2096 17.2097 14.8724 17.2097 12Z" fill="#B8EA8D"/>
<path d="M12 6.79034C14.8723 6.79034 17.2096 9.12758 17.2096 12C17.2096 14.8724 14.8723 17.2096 12 17.2096C9.12763 17.2096 6.79034 14.8723 6.79034 12C6.79034 9.12763 9.12763 6.79034 12 6.79034ZM16.0889 12C16.0889 9.74567 14.2543 7.91108 12 7.91108C9.74567 7.91108 7.91108 9.74567 7.91108 12C7.91108 14.2543 9.74567 16.0889 12 16.0889C14.2543 16.0889 16.0889 14.2543 16.0889 12Z" fill="#394240"/>
</g>
</g>
<defs>
<clipPath id="clip0_19_344">
<rect width="24" height="24" fill="white"/>
</clipPath>
<clipPath id="clip1_19_344">
<rect width="24" height="24" fill="white"/>
</clipPath>
</defs>
</svg>
