<svg width="108" height="108" viewBox="0 0 108 108" fill="none" xmlns="http://www.w3.org/2000/svg">
<rect width="108" height="108" fill="#1E1E1E"/>
<rect width="108" height="108" rx="16" fill="white"/>
<path d="M56.7779 2.68989L54.2536 2.61905L52.244 2.30952L49.7319 2L46.7174 2.30952H44.2053L42.1957 2.61905L38.6787 3.25544L36.1667 4.47619L33.6546 5.71429L31.1425 7.08793L29.1329 8.80952L27.1232 10.3571L25.6159 12.4911L23.9003 14.1385L21.9802 15.896L18.4104 17.7588L13.803 20.5714L11.2787 23.0476L10.1916 26.1569L8.38238 28.4643L7.07573 30.8425L5.01691 32.3333L4.01208 35.7853V39.7619V43.5625V46.881L3 49.5L2 53L2.50484 55.8571V61.7381V65.0566L4.01208 69.1667V74.119L5.01691 77.7765L6.02175 80.619L8.38238 83.7143L10.1916 86.1905L13.0556 87.4286L15.5676 89.5952L18.4104 92.723L20.0894 96.128L22.6015 98.2619L25.6159 99.5L28.6304 100.119L31.6449 101.357L33.6546 102.286L35.6643 103.47L38.6787 104.143L41.1908 104.762L43.7029 105.717H46.215L49.2295 106L51.7294 105.929L54.2536 106L56.7779 105.929L59.2952 105.717H61.7899H63.7995L66.814 105.364H69.3261L72.3406 104.762L75.3551 103.47L79.3744 101.531V100.738L82.3889 98.2619L82.8913 96.4048L84.901 95.1667L86.9106 93.619L88.4179 90.2143L90.4275 89.5952L92.4372 87.119L95.9541 84.0238L97.4614 82.1667L97.9638 80.3095L100.476 76.9048L100.978 74.7381L102.486 73.8095L102.988 71.6429L103.993 69.4762L105.5 66.6905V63.9048V60.1905V57.4048L104.495 54.9286L104.998 51.8333L104.495 48.4286L102.988 45.3333V42.2381L102.419 41L102.486 38.5238L101.983 35.7381L101.432 33.2619L100.476 30.7857L99.9734 28.619L97.9638 26.4524L96.9589 23.9762L95.4517 21.8095L93.9445 19.6429L92.4372 17.7588L89.4227 15L87.413 13.7619L83.3937 12.4911L81.3841 10.9762L79.3744 9.42857L77.8671 7.88095L75.3551 6.64286L72.843 5.40476L70.3309 4.78571L67.3164 4.16667L65.3068 3.25544H61.7988L59.7802 2.68989H56.7779Z" fill="url(#paint0_radial_0_1)"/>
<mask id="mask0_0_1" style="mask-type:alpha" maskUnits="userSpaceOnUse" x="57" y="45" width="36" height="54">
<path d="M58.696 72.3612C58.696 72.3612 57.3565 66.1771 57.9034 61.8219C58.1185 59.4607 58.9374 57.2555 60.2336 55.5469C60.2336 55.5469 61.4384 49.6962 68.6987 46.6648C75.959 43.6333 87.9195 45.2097 90.0991 57.5678C92.2788 69.9259 90.8918 73.3514 90.8918 73.3514C91.2387 73.489 91.5607 73.7134 91.8389 74.0115C92.1171 74.3095 92.3459 74.6753 92.5119 75.0873C92.6779 75.4994 92.7779 75.9495 92.8059 76.4114C92.8339 76.8732 92.7895 77.3376 92.6751 77.7773C91.8825 81.122 88.1731 81.0614 88.1731 81.0614C87.5067 82.2386 86.784 83.3623 86.0093 84.4263C85.5027 85.1471 84.8986 85.746 84.2259 86.1946C84.2259 86.1946 86.2189 88.6774 86.0093 89.7313C84.8056 91.504 84.7784 91.3221 84.3345 91.504C83.8906 91.6858 83.8634 90.879 80.5658 93.8594C76.5552 93.5461 77.7334 95.5213 75.855 96.0265C73.9844 96.5468 72.8551 98.2259 70.9497 97.9868C69.8559 97.6635 66.7885 96.1478 65.5996 96.0265C64.4107 95.9053 61.8189 95.9659 61.7634 94.9554C61.7079 93.9449 62.7066 91.631 63.8162 89.7313C64.4058 88.6624 65.1447 87.741 65.9959 87.0131C64.432 85.6724 63.1806 83.8187 62.3737 81.6474C62.3737 81.6474 59.3063 82.7186 57.5705 78.3634C55.8347 74.0082 58.696 72.3612 58.696 72.3612Z" fill="#1D1D1B"/>
</mask>
<g mask="url(#mask0_0_1)">
<path d="M60.1016 70.3582C60.1016 70.3582 58.2941 63.8693 59.5695 60.8027C60.8449 57.7362 60.9545 57.4382 60.9545 57.4382C60.9545 57.4382 63.1532 51.2569 67.7462 49.392C72.3393 47.5271 78.9511 45.9024 84.5066 50.113C90.062 54.3235 90.0855 68.2529 90.0307 69.0412C89.976 69.8295 89.8351 69.8775 89.8351 69.8775C89.8226 66.2302 88.959 62.6638 87.3469 59.6011C84.6552 54.5542 81.4237 51.132 75.2657 51.2569C69.1077 51.3819 63.7713 57.3036 63.3801 58.5244C62.9889 59.7453 62.6446 60.5624 62.6446 60.5624C62.6446 60.5624 61.9638 59.3031 61.8152 59.3031C61.6665 59.3031 61.2753 59.5434 61.377 59.9087C61.4787 60.274 62.2064 61.2257 62.2064 61.4661C62.1665 61.7747 62.101 62.0775 62.0108 62.3697C62.0108 62.3697 60.8371 61.0431 60.6415 61.2257C60.4459 61.4084 60.4459 62.187 60.4459 62.187C60.4459 62.187 61.5726 63.629 61.5257 63.8117C61.096 65.0607 60.7989 66.3724 60.6415 67.7146C60.5911 68.6282 60.4082 69.5235 60.1016 70.3582Z" fill="#7B5207"/>
<path d="M60.3989 73.1844C60.3989 73.1844 61.0327 75.405 61.377 76.424C61.5805 77.019 61.7122 77.6473 61.7682 78.289C61.2368 78.2174 60.7302 77.9742 60.3001 77.5842C59.8699 77.1942 59.5314 76.6712 59.3191 76.0683C58.6853 74.0208 60.172 73.4247 60.3989 73.1844Z" fill="#FCD396"/>
<path d="M90.0307 73.8477C90.0307 73.8477 89.7882 75.0494 89.4987 76.3664C89.3749 77.0186 89.1774 77.6464 88.9118 78.2313C88.9118 78.2313 91.1575 78.0487 91.4548 76.424C91.5035 76.1396 91.505 75.846 91.4592 75.5608C91.4134 75.2756 91.3213 75.0046 91.1884 74.7641C91.0554 74.5237 90.8844 74.3186 90.6855 74.1611C90.4866 74.0037 90.2639 73.8971 90.0307 73.8477Z" fill="#FCD396"/>
<path d="M75.9464 53.1123C79.9605 53.1123 84.6083 55.8232 87.0496 62.908C89.4908 69.9929 88.9588 77.145 85.4377 81.1152C81.9166 85.0854 78.7398 87.4791 72.7696 86.3448C66.7995 85.2104 64.4051 81.1152 62.5976 76.0684C60.7901 71.0215 61.7369 53.2372 75.9464 53.1123Z" fill="#FCD396"/>
<path d="M67.3941 86.1429C67.8167 85.7584 70.3753 88.9691 76.1421 88.2482C81.9088 87.5272 82.746 85.6622 82.9886 85.6622C83.2312 85.6622 85.2767 88.2064 86.2202 89.6196C86.7601 91.1193 85.9903 90.5041 85.7478 90.5618C85.5189 90.5929 85.5055 91.064 85.2767 91.0329C85.2767 91.0329 85.2985 91.0905 84.8056 91.0329C84.3126 90.9752 84.2406 91.2059 84.3345 91.504C84.4284 91.802 84.0121 91.9174 83.8634 91.975C83.7148 92.0327 83.3923 91.975 82.9213 92.4461C82.6509 92.7165 82.508 92.5487 81.9791 93.3883C81.7522 93.3883 80.5189 93.6767 80.5658 93.8594C79.0148 95.2726 79.9942 94.2367 79.6236 94.3305C79.2531 94.4242 79.6236 94.4142 78.2104 95.2726C78.2104 95.2726 78.2104 96.2148 76.7971 95.7437C73.0284 97.6281 75.855 96.2148 75.855 96.2148C75.855 96.2148 75.1525 96.6022 73.9706 96.6859C72.6427 96.2777 72.9841 97.622 71.6152 97.6281C69.659 97.753 69.5601 98.8106 67.8465 98.5702C66.1329 98.3299 66.2312 99.6182 64.5489 99.5124C62.8666 99.4067 62.2404 99.7527 62.1935 99.5124C62.1465 99.2721 64.2643 89.0268 67.3941 86.1429Z" fill="#FAB900"/>
<path d="M66.6117 60.9854C66.2517 60.9854 71.1578 59.7838 71.4003 60.1491C71.6429 60.5144 71.8385 60.9854 71.4473 60.9854C71.056 60.9854 67.3394 62.1101 67.0029 62.0044C66.6664 61.8986 66.6586 60.9854 66.6117 60.9854Z" fill="#1D1D1B"/>
<path d="M81.1811 60.3894C81.3767 60.3894 85.4846 61.1104 85.5316 61.5237C85.5785 61.9371 85.8759 62.0717 85.3907 62.1294C83.975 61.9512 82.5693 61.6687 81.1811 61.2834C80.8368 61.1488 81.1811 60.3894 81.1811 60.3894Z" fill="#1D1D1B"/>
<path d="M68.513 62.7927C71.2047 62.0044 74.9683 62.3697 74.8275 68.2529C74.6867 74.1361 69.0529 75.107 66.3613 72.7615C63.6696 70.4159 63.5757 64.2346 68.513 62.7927Z" fill="#1D1D1B"/>
<path d="M68.693 63.6194C70.97 62.9561 74.1702 63.2637 74.0372 68.2529C73.9042 73.2421 69.1468 74.0208 66.8699 72.0981C64.5929 70.1755 64.5068 64.8403 68.693 63.6194Z" fill="white"/>
<path d="M80.0544 62.9657C82.4017 61.4468 86.2671 63.0907 86.4158 68.4355C86.5644 73.7804 81.674 74.9244 79.2249 72.4634C76.7758 70.0025 76.2907 65.4363 80.0544 62.9657Z" fill="#1D1D1B"/>
<path d="M80.3673 63.8501C82.2922 62.5908 85.5081 63.9462 85.6255 68.3683C85.7429 72.7903 81.7132 73.742 79.6788 71.704C77.6444 69.666 77.2531 65.8881 80.3673 63.8501Z" fill="white"/>
<path d="M69.2016 67.0513C69.9137 66.3783 71.1578 66.6379 71.2047 67.7722C71.2423 68.0628 71.2153 68.3604 71.1267 68.6336C71.0381 68.9069 70.8911 69.1457 70.7012 69.3249C70.5113 69.504 70.2855 69.6169 70.0478 69.6516C69.81 69.6862 69.569 69.6414 69.3503 69.5218C68.1218 68.9739 68.7791 67.4742 69.2016 67.0513Z" fill="#1D1D1B"/>
<path d="M81.3767 67.0513C82.0888 66.3783 83.3329 66.6379 83.3798 67.7722C83.4202 68.0635 83.3951 68.3628 83.3073 68.6379C83.2195 68.913 83.0724 69.1534 82.8816 69.3334C82.6909 69.5134 82.4638 69.626 82.2248 69.6592C81.9858 69.6924 81.744 69.6449 81.5254 69.5218C80.3047 68.9739 80.9385 67.4742 81.3767 67.0513Z" fill="#1D1D1B"/>
<path d="M74.8745 74.9821C75.0857 75.0398 77.9026 77.0873 78.2938 76.7893C78.6851 76.4913 78.3955 75.107 77.9026 74.6264C77.4096 74.1457 77.4644 74.4437 77.4175 74.1457C77.4041 74.0845 77.4033 74.0202 77.415 73.9585C77.4268 73.8968 77.4507 73.8397 77.4848 73.7921C77.5189 73.7445 77.562 73.7081 77.6103 73.6859C77.6586 73.6637 77.7106 73.6566 77.7618 73.6651C78.1895 73.7835 78.5775 74.0596 78.874 74.4565C79.1704 74.8534 79.3611 75.352 79.4206 75.8857C79.6631 77.693 78.7868 78.2313 77.6131 77.866C76.4383 77.3642 75.3444 76.6126 74.3815 75.6454C74.2563 75.4051 74.6319 74.9244 74.8745 74.9821Z" fill="#1D1D1B"/>
<path d="M70.344 79.6733C70.6805 79.6156 72.0028 81.7112 75.3752 81.5382C76.6998 81.5152 78.0158 81.2727 79.2875 80.8172C79.4475 80.8558 79.5922 80.9591 79.6986 81.1108C79.805 81.2624 79.8669 81.4536 79.8744 81.6536C79.8274 81.8362 77.6287 82.9802 74.3033 82.6149C70.8057 82.24 69.8511 80.6346 69.7572 80.3943C69.6633 80.1539 69.9841 79.731 70.344 79.6733Z" fill="#1D1D1B"/>
<rect x="30" y="23.8" width="96" height="101" fill="black"/>
</g>
<mask id="mask1_0_1" style="mask-type:alpha" maskUnits="userSpaceOnUse" x="10" y="28" width="49" height="47">
<path d="M16.8383 48.2032C15.3904 46.5928 14.1853 44.7797 13.261 42.8213C11.7506 39.6017 11.7347 37.8131 12.0685 37.6859C12.4024 37.5587 17.2517 37.7733 19.4616 37.7892C21.6716 37.8051 22.6415 37.7892 22.6415 37.662C22.6415 37.5348 22.3155 34.0052 22.0373 32.0973C21.7591 30.1894 21.4888 28.9175 21.6478 28.8698C23.9674 29.0396 26.2454 29.5763 28.397 30.4597C32.3718 31.9145 33.1667 33.3295 33.1667 33.3295C35.409 31.6095 37.8816 30.2127 40.5121 29.1798C44.3677 27.8284 45.886 28.0192 46.0212 28.2497C46.1563 28.4803 44.2087 37.3043 44.5426 37.3997C46.3227 37.3792 48.0894 37.087 49.7813 36.5332C51.9516 35.8257 55.346 34.1483 55.7038 34.1483C56.0615 34.1483 56.3556 36.9466 54.8611 40.3887C53.3666 43.8309 53.0089 44.2999 53.144 44.3635C54.2456 44.0851 55.3245 43.7237 56.3715 43.2824C57.4924 42.8134 58.0807 42.7418 58.2158 43.1393C58.5697 46.0824 57.8438 49.0539 56.1728 51.5023C53.621 54.8888 52.5001 55.0637 52.4047 55.1988C52.3093 55.3339 52.4047 56.0494 54.8611 56.5582C57.3175 57.067 58.5577 57.0272 58.5259 57.5598C58.2554 58.7713 57.7427 59.9155 57.0187 60.9237C56.2946 61.9319 55.3741 62.7833 54.3126 63.4266C51.0612 65.3663 50.8625 65.3663 50.934 65.6286C51.0056 65.891 51.0453 71.1934 50.934 71.5988C50.8227 72.0042 49.7177 72.7038 47.9688 72.3937C46.3833 72.0976 44.8454 71.5868 43.3978 70.8754C43.0516 70.643 42.7293 70.3767 42.4359 70.0804C42.4359 70.0804 39.5105 71.6226 38.8189 71.8929C38.4065 72.0548 37.9771 72.1695 37.539 72.2348C37.539 72.2348 37.539 74.4765 37.4515 74.6196C37.36 74.704 37.2484 74.7636 37.1274 74.7929C37.0064 74.8221 36.8799 74.8199 36.7599 74.7866C36.3466 74.7192 35.9251 74.7192 35.5118 74.7866C35.2508 74.8509 34.978 74.8509 34.7169 74.7866C34.299 74.7508 33.8788 74.7508 33.4609 74.7866C33.0952 74.7866 32.2048 74.7866 32.1412 74.564C32.0776 74.3414 31.9584 72.4176 31.9584 72.4176C30.7059 72.325 29.4818 71.9987 28.3493 71.4557C27.6466 71.0767 27.0168 70.5761 26.4891 69.9771C25.4344 71.0143 24.0951 71.7144 22.6415 71.9883C20.5348 72.2347 19.406 71.9883 19.4616 71.8134C19.5173 71.6385 21.139 66.3918 20.7415 66.4236C20.344 66.4554 13.4518 66.7495 12.8873 66.7495C12.3229 66.7495 11.6949 66.1056 11.9254 65.6048C12.156 65.104 15.1053 60.2309 16.2262 59.102C17.3471 57.9732 17.9671 57.2736 17.9671 57.2736C16.5573 56.6811 15.0771 56.2723 13.5631 56.0574C11.3849 55.8109 10.256 55.0875 10.3832 54.8252C11.3211 53.2434 12.4893 51.81 13.8492 50.5721C15.4233 49.2764 16.8383 48.2032 16.8383 48.2032Z" fill="#1D1D1B"/>
</mask>
<g mask="url(#mask1_0_1)">
<path d="M13.6585 38.9896C13.8969 38.7511 24.3904 39.0373 24.4222 38.8386C24.454 38.6398 22.9277 29.9748 23.2297 29.9748C25.7122 30.7021 28.1105 31.6907 30.3844 32.9241C32.4751 34.2596 32.5785 34.7525 33.1429 34.7207C33.7073 34.6889 36.3227 32.1848 39.8444 30.8413C43.366 29.4978 44.5505 29.4104 44.5505 29.5455C44.5505 29.6807 43.4058 35.3567 43.1832 36.4139C42.9606 37.4712 42.8334 38.5921 43.0639 38.6557C45.2801 38.7192 47.4933 38.4513 49.6303 37.8608C52.7545 36.9784 54.9883 35.7462 55.0281 35.9767C54.2818 38.4635 53.3161 40.879 52.1424 43.1949C51.1964 44.6497 50.8148 45.9057 51.0135 46.0091C51.2123 46.1124 52.3332 45.7627 54.4716 45.1187C56.61 44.4748 56.8565 44.3715 56.8565 44.4748C56.8969 46.629 56.2874 48.7455 55.1076 50.5483C53.8301 52.2735 52.3456 53.8353 50.6876 55.1988C50.7995 55.6327 50.9981 56.0395 51.2713 56.3947C51.5446 56.7499 51.8868 57.0462 52.2775 57.2657C53.2076 57.687 56.8088 58.2196 56.777 58.4184C55.9268 60.4255 54.4447 62.1003 52.5557 63.1881C49.7654 64.627 49.4316 64.778 49.3759 65.0324C49.3203 65.2868 49.519 70.8038 49.2885 70.8356C47.9426 70.7283 46.611 70.4859 45.3137 70.1122C44.1928 69.7227 43.7238 69.3649 43.7238 69.2696C44.6202 68.1729 45.376 66.9685 45.9735 65.6843C46.2906 64.9206 46.507 64.1189 46.6174 63.2994C46.6174 63.2994 50.2504 63.4743 50.5922 60.9145C50.934 58.3548 49.0897 57.8858 48.5651 57.7983C48.218 57.7196 47.8636 57.6769 47.5078 57.6711C47.5078 57.6711 48.4299 49.4831 45.6555 44.9518C42.8811 40.4205 39.9239 38.0277 33.9219 38.2741C27.92 38.5206 24.7084 41.6845 23.2377 47.8136C21.767 53.9428 22.1566 57.4644 22.1566 57.4644C22.1566 57.4644 19.2232 57.5837 19.3106 61.2166C19.398 64.8496 23.2297 64.1182 23.2297 64.1182C23.2076 65.218 23.5119 66.2996 24.1042 67.2265C25.074 68.7051 25.5113 69.2616 25.5113 69.2616C25.5113 69.2616 21.6319 70.7402 21.6001 70.5176C21.5683 70.295 22.5938 66.9085 22.4586 66.5428C22.3235 66.1772 21.6637 65.4617 21.4252 65.4617C21.1867 65.4617 13.7062 65.7876 13.6346 65.4617C13.5631 65.1358 15.2961 62.4727 17.0291 60.2865C18.7621 58.1004 19.6127 57.2577 19.5809 56.9636C19.5491 56.6695 18.3805 55.2862 15.8287 54.9126C13.2769 54.539 12.2673 54.5787 12.3309 54.4833C13.5747 52.8806 15.0021 51.4291 16.5839 50.1588C17.3699 49.7338 18.0535 49.1424 18.5872 48.4258C17.2336 46.9125 16.0475 45.2573 15.0496 43.4891C13.6426 40.8419 13.5631 39.093 13.6585 38.9896Z" fill="#85BFE9"/>
<path d="M25.3205 35.5395C25.0364 34.3544 24.8161 33.155 24.6607 31.9463C25.6651 32.2205 26.6419 32.5878 27.5782 33.0433C27.5782 33.1785 27.5782 33.7429 27.4828 33.7429C26.919 33.5876 26.3453 33.4707 25.7657 33.3931C25.7657 33.4885 26.0359 34.983 26.0041 35.0387C25.9724 35.0943 25.3841 35.6269 25.3205 35.5395Z" fill="#1D1D1B"/>
<path d="M37.6185 33.5521C38.4079 32.8791 39.2786 32.3075 40.21 31.8509C41.164 31.5091 41.005 31.3501 41.164 31.5091C41.323 31.668 41.5376 32.2007 41.4343 32.304C40.6118 32.5845 39.8141 32.9328 39.0494 33.3454C38.2942 33.8462 38.2545 34.1404 38.0716 34.0768C37.8888 34.0132 37.7139 33.6872 37.6185 33.5521Z" fill="#1D1D1B"/>
<path d="M22.1009 58.9272C22.4056 60.1923 22.5919 61.483 22.6574 62.7827C22.562 62.7827 20.7813 62.5681 20.7654 61.2802C20.786 60.8103 20.9178 60.352 21.15 59.943C21.3821 59.5339 21.708 59.1858 22.1009 58.9272Z" fill="#E6E4DA"/>
<path d="M47.5475 58.959C47.6509 58.8477 49.4316 58.959 49.1374 60.4932C48.8433 62.0275 46.9195 62.5681 46.8797 62.3614C47.0208 61.7357 47.1933 61.1175 47.3965 60.5091C47.6191 59.579 47.3488 59.1577 47.5475 58.959Z" fill="#E6E4DA"/>
<path d="M33.8027 39.6892C36.9825 39.6892 40.8301 39.8641 43.843 45.1187C46.8559 50.3734 46.522 54.539 45.7032 59.2372C44.8844 63.9354 43.5807 66.7416 42.7698 67.6399C42.4587 68.0109 42.1184 68.3565 41.7523 68.6733C41.1419 68.1888 40.4871 67.7629 39.7967 67.4014C39.6297 67.465 39.3992 67.7035 39.4707 67.8307C39.5423 67.9579 41.0607 69.039 40.9971 69.1424C40.9335 69.2457 40.0749 69.8419 39.9795 69.7386C39.3544 69.2004 38.6988 68.6988 38.016 68.2361C37.8888 68.2361 37.4913 68.5382 37.5628 68.6733C37.6344 68.8085 39.4469 69.9771 39.2561 70.1122C39.0653 70.2473 38.008 70.7164 37.8729 70.613C37.7377 70.5097 36.3386 69.0788 36.2114 69.0788C36.0842 69.0788 35.7185 69.2775 35.8139 69.4444C35.9093 69.6114 36.9507 70.8515 36.9507 70.8515C34.7997 71.1105 32.6238 71.0838 30.4798 70.772C27.5384 70.2314 25.4636 66.988 24.5176 63.53C23.5716 60.0719 23.5716 52.7106 24.5971 48.6404C25.6226 44.5702 27.4271 39.7369 33.8027 39.6892Z" fill="#E6E4DA"/>
<path d="M33.0316 72.4017C33.127 72.3063 34.0253 72.4653 34.9156 72.4017C35.806 72.3381 36.2353 72.354 36.2353 72.4494C36.2353 72.5448 36.3466 73.9042 36.2353 73.936C35.8412 74.059 35.4215 74.0755 35.019 73.9837C34.6519 73.7923 34.2397 73.7043 33.8265 73.7293C33.5006 73.7929 33.3019 74.0313 33.1985 73.8962C33.0692 73.4091 33.0129 72.9054 33.0316 72.4017Z" fill="#E6E4DA"/>
<path d="M27.2363 44.5305C27.4987 44.4351 29.6212 43.1552 34.7169 43.179C39.8126 43.2029 42.7142 44.5702 42.7857 44.9677C42.8573 45.3652 42.7857 46.9153 42.5075 46.9153C42.2292 46.9153 40.6473 45.8103 34.8043 45.8739C28.9614 45.9375 27.284 47.3287 26.9581 47.1061C26.6322 46.8835 26.2824 44.8643 27.2363 44.5305Z" fill="#1D1D1B"/>
<path d="M27.5702 45.079C27.769 44.6656 30.1697 43.7355 34.9872 43.9581C39.8046 44.1807 42.0623 44.9915 42.0623 45.2618C42.0623 45.5321 42.2292 45.9534 42.0623 45.9534C39.6929 45.27 37.2284 44.9747 34.7646 45.079C32.3856 45.1712 30.0226 45.5095 27.7133 46.0886C27.443 46.0091 27.5066 45.1823 27.5702 45.079Z" fill="#85BFE9"/>
<path d="M36.9348 48.2588C39.1528 47.3526 43.2945 48.0124 43.1434 52.5357C42.9924 57.059 37.4754 57.695 35.6072 55.167C33.7391 52.639 34.6294 49.1889 36.9348 48.2588Z" fill="#1D1D1B"/>
<path d="M37.2846 48.9663C39.0971 48.2191 42.4836 48.7596 42.3803 52.4721C42.2769 56.1845 37.7218 56.7092 36.1876 54.6185C34.6533 52.5277 35.3926 49.7374 37.2846 48.9663Z" fill="white"/>
<path d="M27.8723 48.1396C29.9153 47.3049 33.7152 47.909 33.596 52.0746C33.4768 56.2402 28.3731 56.8444 26.6481 54.5072C24.923 52.17 25.7498 49.0061 27.8723 48.1396Z" fill="#1D1D1B"/>
<path d="M28.1982 48.7994C29.8676 48.1157 32.968 48.6086 32.8885 52.0349C32.809 55.4611 28.6037 55.9381 27.1886 54.0302C25.7736 52.1223 26.4891 49.5149 28.1982 48.7994Z" fill="white"/>
<path d="M29.2796 51.3194C29.4214 51.2521 29.5791 51.2253 29.7353 51.242C29.8914 51.2587 30.0399 51.3183 30.1642 51.4142C30.2886 51.51 30.384 51.6384 30.4399 51.7852C30.4958 51.9319 30.51 52.0912 30.481 52.2456C30.4519 52.3999 30.3807 52.5431 30.2753 52.6595C30.1699 52.7759 30.0343 52.8608 29.8836 52.9049C29.7329 52.949 29.5729 52.9505 29.4214 52.9093C29.2699 52.8681 29.1327 52.7858 29.0251 52.6715C28.9407 52.5706 28.8797 52.4522 28.8465 52.3249C28.8134 52.1977 28.8088 52.0646 28.8331 51.9354C28.8574 51.8061 28.9101 51.6838 28.9873 51.5773C29.0645 51.4708 29.1643 51.3828 29.2796 51.3194Z" fill="#1D1D1B"/>
<path d="M38.6283 51.6692C38.7705 51.6029 38.9283 51.5772 39.0842 51.595C39.2401 51.6128 39.3881 51.6733 39.5117 51.7699C39.6354 51.8665 39.7299 51.9954 39.7849 52.1424C39.8399 52.2893 39.8531 52.4486 39.8232 52.6027C39.7933 52.7567 39.7214 52.8995 39.6155 53.0152C39.5095 53.1309 39.3736 53.2151 39.2228 53.2584C39.0719 53.3018 38.9121 53.3025 38.7609 53.2607C38.6096 53.2188 38.4729 53.136 38.3658 53.0213C38.2818 52.9198 38.2213 52.801 38.1887 52.6734C38.1561 52.5458 38.1522 52.4125 38.1773 52.2832C38.2024 52.1539 38.2558 52.0317 38.3338 51.9256C38.4118 51.8194 38.5124 51.7318 38.6283 51.6692Z" fill="#1D1D1B"/>
<path d="M26.4255 56.0017C27.0947 56.5828 27.9282 56.9412 28.8104 57.0272C29.6346 57.0871 30.463 57.0037 31.2588 56.7808C31.4178 56.8205 31.4258 57.2975 31.4178 57.4247C30.4734 57.8186 29.434 57.9264 28.4288 57.7347C27.5282 57.6305 26.6885 57.2275 26.0439 56.59C25.9724 56.4548 26.3301 56.0017 26.4255 56.0017Z" fill="#1D1D1B"/>
<path d="M38.1909 57.4644C39.0365 57.7331 39.9447 57.7331 40.7904 57.4644C41.5678 57.2069 42.2922 56.811 42.9288 56.2958C43.0957 56.2958 43.2865 56.7092 43.3263 56.8285C42.6084 57.5604 41.6902 58.0638 40.687 58.2753C39.8248 58.5122 38.9087 58.4591 38.0796 58.1242C37.9444 58.0607 38.0955 57.4962 38.1909 57.4644Z" fill="#1D1D1B"/>
<path d="M32.6738 57.6314C32.6738 57.528 33.2542 57.3929 33.2939 57.5519C33.3337 57.7109 33.1906 62.6237 34.542 62.5919C35.8934 62.5601 35.4483 57.536 35.5754 57.4644C35.783 57.4255 35.9959 57.4255 36.2035 57.4644C36.2035 57.4644 36.9984 63.4982 34.6135 63.4664C32.2287 63.4346 32.6818 57.695 32.6738 57.6314Z" fill="#1D1D1B"/>
<path d="M26.6083 65.1914C26.5828 64.7252 26.6338 64.2579 26.7594 63.8082C26.9581 63.371 27.5543 62.8781 27.6815 62.9099C27.8087 62.9417 28.079 63.2676 27.9756 63.4028C27.8723 63.5379 27.292 63.8638 27.2602 64.2613C27.2284 64.6588 27.2602 65.3504 27.1727 65.3902C26.9679 65.3873 26.7697 65.3175 26.6083 65.1914Z" fill="#1D1D1B"/>
<path d="M40.059 62.9735C40.059 62.9735 40.4803 62.4727 40.6155 62.4727C40.8837 62.5797 41.1276 62.7398 41.3325 62.9433C41.5374 63.1469 41.6991 63.3897 41.8079 63.6572C42.11 64.4521 42.1179 65.1994 41.8874 65.2471C41.6569 65.2948 41.2594 65.3504 41.2594 65.2471C41.2594 65.1437 41.5853 64.2613 41.2594 63.7287C40.9344 63.3737 40.5197 63.1128 40.059 62.9735Z" fill="#1D1D1B"/>
<path d="M28.3811 64.6191C28.548 64.6667 30.1459 65.7558 33.8742 65.6286C35.9865 65.5143 38.0718 65.0994 40.067 64.3965C40.1611 64.6034 40.2073 64.829 40.2021 65.0563C40.2021 65.1835 37.539 66.5269 33.747 66.4554C29.9551 66.3839 28.23 65.4776 28.1823 65.3425C28.1346 65.2073 28.2857 64.5873 28.3811 64.6191Z" fill="#1D1D1B"/>
<rect x="3" y="11" width="73" height="110" fill="black"/>
</g>
<path d="M62.3441 94.708C62.4895 94.4523 62.6244 94.1784 62.6788 94.0263C62.9854 94.1062 63.0283 94.0635 63.1044 94.0732C63.1877 94.0839 63.2582 94.1045 63.354 94.1148C63.7575 94.1464 64.0391 94.2019 64.3633 94.24C64.9954 94.3141 65.6213 94.3995 66.1438 94.5532C66.6078 94.6896 67.0071 94.9216 67.4967 95.0328C67.9141 95.1276 69.0056 95.4633 69.6337 95.6901C70.0963 95.8572 70.3656 96.0112 70.7384 96.1388C71.3783 96.3578 72.1977 96.4182 72.1009 96.7542C72.0649 96.8791 71.3614 97.2864 70.389 97.5364C69.7844 97.6919 68.6376 97.8817 67.7887 98.0367C66.9355 98.1925 66.4079 98.2492 65.9262 98.3389C65.3686 98.4428 65.0358 98.4734 64.7037 98.516C64.1336 98.5892 63.5578 98.6845 63.1731 98.7663C62.8288 98.8395 62.5647 98.9696 62.2472 99.0479C62.1636 99.0686 62.0386 99.07 62.0225 98.558C61.9755 97.0562 62.0133 95.9818 62.035 95.8241C62.071 95.5631 62.114 95.1129 62.3441 94.708Z" fill="#060606"/>
<path d="M62.6878 94C62.6407 94.1452 62.4983 94.4368 62.3441 94.708C62.114 95.1129 62.071 95.5631 62.035 95.8241C62.0133 95.9818 61.9755 97.0562 62.0225 98.558C62.0386 99.07 62.1636 99.0686 62.2472 99.0479C62.5647 98.9696 62.8288 98.8395 63.1731 98.7663C63.5578 98.6845 64.1336 98.5892 64.7037 98.516C65.0358 98.4734 65.3686 98.4428 65.9262 98.3389C66.4079 98.2492 66.9355 98.1925 67.7887 98.0367C68.6376 97.8817 69.7844 97.6919 70.389 97.5364C71.3614 97.2864 72.0649 96.8791 72.1009 96.7542C72.1977 96.4182 71.3783 96.3578 70.7384 96.1388C70.3656 96.0112 70.0963 95.8572 69.6337 95.6901C69.0056 95.4633 67.9141 95.1276 67.4967 95.0328C67.0071 94.9216 66.6078 94.6896 66.1438 94.5532C65.6213 94.3995 64.9954 94.3141 64.3633 94.24C64.0391 94.2019 63.7575 94.1464 63.354 94.1148C63.2582 94.1045 63.1877 94.0839 63.1044 94.0732C63.0211 94.0626 62.9776 94.1148 62.5839 94" stroke="black" stroke-linecap="round"/>
<mask id="mask2_0_1" style="mask-type:alpha" maskUnits="userSpaceOnUse" x="19" y="74" width="34" height="28">
<path d="M22.2976 75.8843C22.7687 75.4133 26.4237 74.721 32.1904 74C34.0748 74 35.0169 74 36.9013 74C41.1411 75.4133 47.7363 76.3554 48.2073 77.2976C48.6119 78.1067 51.5049 98.0254 52.4471 101.794C49.6206 102.265 48.2073 101.794 47.2652 101.323C47.2652 101.323 45.4027 100.91 44.9097 100.852C44.4168 100.794 43.9676 100.852 43.0254 100.381C41.6121 100.381 40.4143 99.8521 40.2656 99.9097C40.117 99.9674 38.6119 99.679 38.3145 99.4387C38.0172 99.1983 37.1282 98.9676 36.9013 98.9676C36.6744 98.9676 35.4411 98.3138 35.488 98.4965C35.535 98.6791 33.7993 97.4389 33.6037 97.5543C33.2331 97.648 32.5686 97.0939 32.1904 97.0832C32.1904 97.0832 31.0745 96.6121 30.7772 96.6121C30.4798 96.6121 29.835 95.67 29.835 95.67C29.835 95.67 28.6173 95.1989 28.4217 95.1989C27.0938 94.7907 27.9063 94.2507 26.5374 94.2567C24.5812 94.3817 25.4245 92.6127 23.7109 92.3724C21.9973 92.132 23.0377 90.5938 21.3554 90.488C19.6731 90.3823 21.3527 90.7474 19 88.6037C20.8843 80.5952 21.9094 76.2726 22.2976 75.8843Z" fill="#FAB900"/>
</mask>
<g mask="url(#mask2_0_1)">
<rect x="14.2902" y="58.5723" width="49.9351" height="45.2243" fill="black"/>
</g>
<path d="M62.5 99C67 98.5 71.888 97.204 72.5 97C75.5 96 79.0962 94.259 79.5 94C79.9067 93.7392 84.7209 90.2175 85 90" stroke="black" stroke-width="2" stroke-linecap="round"/>
<path d="M20 89C23.5 92 31.5 96.5 34 97.5C35.4475 98.079 38 99.5 51.5 102" stroke="black" stroke-width="2" stroke-linecap="round"/>
<defs>
<radialGradient id="paint0_radial_0_1" cx="0" cy="0" r="1" gradientUnits="userSpaceOnUse" gradientTransform="translate(53.75 54) rotate(90) scale(52 51.75)">
<stop offset="0.0817308" stop-color="#DCEF3E"/>
<stop offset="0.326923" stop-color="#65CD20"/>
<stop offset="0.461538" stop-color="#A1DE2F"/>
<stop offset="0.610577" stop-color="#DCEF3E"/>
<stop offset="0.716346" stop-color="#8CD82A"/>
<stop offset="0.778846" stop-color="#B4E434"/>
<stop offset="0.884615" stop-color="#DCEF3E"/>
<stop offset="1" stop-color="#B4E434"/>
</radialGradient>
</defs>
</svg>
